<svg id="レイヤー_1" data-name="レイヤー 1" xmlns="http://www.w3.org/2000/svg" viewBox="0 0 640 360"><defs><style>.cls-1{fill:#4a91f2;}.cls-2{fill:#8dbdff;}.cls-3{fill:#bfd6f6;}.cls-4{fill:#fff;}.cls-5{fill:#333;}</style></defs><title>Akka HTTP quickintro</title><rect class="cls-1" y="240" width="640" height="120"/><rect class="cls-2" y="120" width="640" height="120"/><rect class="cls-3" width="640" height="120"/><path class="cls-4" d="M210.05,307.56H198l-1.68,5.67H185.48l12.92-34.36H210l12.91,34.36H211.77Zm-2.2-7.43-3.79-12.35-3.76,12.35Z"/><path class="cls-4" d="M225.63,278.87h9.75v17.74l7.13-8.27h11.74l-8.93,8.72,9.44,16.17H244l-5-10-3.6,3.51v6.47h-9.75Z"/><path class="cls-4" d="M257.65,278.87h9.75v17.74l7.12-8.27h11.74l-8.92,8.72,9.44,16.17H276l-5-10-3.59,3.51v6.47h-9.75Z"/><path class="cls-4" d="M298.36,296.4l-9.12-1a10.13,10.13,0,0,1,1.49-3.76,8.23,8.23,0,0,1,2.8-2.38,11.76,11.76,0,0,1,3.61-1.12,28.68,28.68,0,0,1,5-.4,39.56,39.56,0,0,1,6.89.48,8.87,8.87,0,0,1,4.33,2,7,7,0,0,1,1.93,3,10.77,10.77,0,0,1,.7,3.69v11a13.24,13.24,0,0,0,.22,2.76,12.6,12.6,0,0,0,1,2.54h-9a9.27,9.27,0,0,1-.7-1.46,11.06,11.06,0,0,1-.33-1.59,12.08,12.08,0,0,1-3.73,2.58,15.4,15.4,0,0,1-5.88,1c-3,0-5.22-.68-6.76-2.06a6.55,6.55,0,0,1-2.31-5.09,6.66,6.66,0,0,1,1.67-4.66c1.1-1.22,3.15-2.12,6.14-2.72q5.35-1.08,7-1.51a32.72,32.72,0,0,0,3.37-1.14,3.38,3.38,0,0,0-.72-2.46,3.66,3.66,0,0,0-2.56-.7,6.65,6.65,0,0,0-3.52.75A4.11,4.11,0,0,0,298.36,296.4Zm8.27,5c-1.31.47-2.68.88-4.1,1.24a9.58,9.58,0,0,0-3.68,1.52,2.42,2.42,0,0,0-.8,1.76,2.4,2.4,0,0,0,.79,1.84,3.3,3.3,0,0,0,2.31.72,5.87,5.87,0,0,0,3-.78,4.67,4.67,0,0,0,1.95-1.88,6.4,6.4,0,0,0,.57-2.9Z"/><path class="cls-4" d="M359.44,307.56H347.39l-1.68,5.67H334.87l12.92-34.36h11.58l12.91,34.36H361.16Zm-2.2-7.43-3.79-12.35-3.75,12.35Z"/><path class="cls-4" d="M393.58,303.48l9.08,1a12.72,12.72,0,0,1-2.47,4.91,11.34,11.34,0,0,1-4.37,3.22,17,17,0,0,1-6.76,1.15,25.07,25.07,0,0,1-6.6-.73,11.65,11.65,0,0,1-4.53-2.39,12,12,0,0,1-3-3.88,13.61,13.61,0,0,1-1.08-5.9,13.82,13.82,0,0,1,1.32-6.39,11.5,11.5,0,0,1,2.62-3.36,12.32,12.32,0,0,1,3.42-2.22,19.12,19.12,0,0,1,7.15-1.14c4.06,0,7.16.72,9.29,2.18a11.46,11.46,0,0,1,4.49,6.37l-9,1.2a4.11,4.11,0,0,0-1.54-2.4,5,5,0,0,0-3-.81,4.82,4.82,0,0,0-3.83,1.69,7.69,7.69,0,0,0-1.46,5.14,6.66,6.66,0,0,0,1.45,4.65,4.79,4.79,0,0,0,3.7,1.59,5.09,5.09,0,0,0,3.15-1A5.64,5.64,0,0,0,393.58,303.48Z"/><path class="cls-4" d="M418.55,278.87v9.47h5.25v7h-5.25v8.82a4.86,4.86,0,0,0,.3,2.11,1.74,1.74,0,0,0,1.64.79,10.3,10.3,0,0,0,2.95-.61l.71,6.59a30.82,30.82,0,0,1-6.61.77,11.46,11.46,0,0,1-5.25-.91,5.56,5.56,0,0,1-2.5-2.77,16.28,16.28,0,0,1-.81-6v-8.76h-3.51v-7H409v-4.57Z"/><path class="cls-4" d="M427.17,300.86a12.46,12.46,0,0,1,3.84-9.39q3.86-3.69,10.39-3.69,7.47,0,11.29,4.33a13.58,13.58,0,0,1-.73,18q-3.81,3.66-10.54,3.66a14.78,14.78,0,0,1-9.7-3A12.25,12.25,0,0,1,427.17,300.86Zm9.56,0a7.49,7.49,0,0,0,1.35,4.92,4.41,4.41,0,0,0,6.77,0q1.33-1.57,1.33-5a7.35,7.35,0,0,0-1.34-4.82,4.17,4.17,0,0,0-3.3-1.58,4.34,4.34,0,0,0-3.45,1.61A7.44,7.44,0,0,0,436.73,300.83Z"/><path class="cls-4" d="M460.45,288.34h8.93v4.08a9.81,9.81,0,0,1,2.66-3.65,5.64,5.64,0,0,1,3.39-1,10.06,10.06,0,0,1,4.62,1.31l-3,6.8a7.46,7.46,0,0,0-2.67-.71,3.31,3.31,0,0,0-2.91,1.55Q470,298.9,470,304.89v8.34h-9.59Z"/><path class="cls-5" d="M188,187.56H176l-1.68,5.67H163.47l12.91-34.36H188l12.91,34.36H189.76Zm-2.2-7.43L182,167.78l-3.75,12.35Z"/><path class="cls-5" d="M203.62,158.87h9.75v17.74l7.12-8.27h11.75l-8.93,8.72,9.44,16.17H222l-5-10-3.59,3.51v6.47h-9.75Z"/><path class="cls-5" d="M235.63,158.87h9.75v17.74l7.13-8.27h11.74l-8.93,8.72,9.45,16.17H254l-5-10-3.6,3.51v6.47h-9.75Z"/><path class="cls-5" d="M276.35,176.4l-9.12-1a10.13,10.13,0,0,1,1.49-3.76,8.23,8.23,0,0,1,2.8-2.38,11.67,11.67,0,0,1,3.61-1.12,28.59,28.59,0,0,1,5-.4,39.56,39.56,0,0,1,6.89.48,8.87,8.87,0,0,1,4.33,2,7,7,0,0,1,1.92,3,10.79,10.79,0,0,1,.71,3.69v11a13.24,13.24,0,0,0,.22,2.76,12.46,12.46,0,0,0,1,2.54h-8.95a9.27,9.27,0,0,1-.7-1.46,11.06,11.06,0,0,1-.33-1.59,12.08,12.08,0,0,1-3.73,2.58,15.47,15.47,0,0,1-5.88,1c-3,0-5.22-.68-6.76-2.06a6.55,6.55,0,0,1-2.31-5.09,6.65,6.65,0,0,1,1.66-4.66c1.11-1.22,3.16-2.12,6.14-2.72q5.37-1.08,7-1.51a32.06,32.06,0,0,0,3.38-1.14,3.33,3.33,0,0,0-.73-2.46,3.62,3.62,0,0,0-2.55-.7,6.63,6.63,0,0,0-3.52.75A4.05,4.05,0,0,0,276.35,176.4Zm8.27,5c-1.31.47-2.68.88-4.1,1.24a9.5,9.5,0,0,0-3.68,1.52,2.42,2.42,0,0,0-.8,1.76,2.36,2.36,0,0,0,.79,1.84,3.29,3.29,0,0,0,2.3.72,5.88,5.88,0,0,0,3-.78,4.64,4.64,0,0,0,1.94-1.88,6.26,6.26,0,0,0,.58-2.9Z"/><path class="cls-5" d="M314.46,181.86l10.1-.63a7.74,7.74,0,0,0,1.33,3.75,5.63,5.63,0,0,0,4.69,2.09,5.18,5.18,0,0,0,3.5-1.07,3.2,3.2,0,0,0,1.23-2.47,3.15,3.15,0,0,0-1.17-2.39c-.78-.71-2.59-1.37-5.43-2q-7-1.56-10-4.17a8.37,8.37,0,0,1-3-6.63,9,9,0,0,1,1.54-5,10.17,10.17,0,0,1,4.62-3.71,21.53,21.53,0,0,1,8.45-1.34q6.58,0,10,2.44c2.3,1.64,3.67,4.23,4.11,7.8l-10,.58a5.35,5.35,0,0,0-1.67-3.37,5.41,5.41,0,0,0-3.53-1.06,4.3,4.3,0,0,0-2.79.79,2.42,2.42,0,0,0-.94,1.91,1.91,1.91,0,0,0,.78,1.48,8.77,8.77,0,0,0,3.56,1.26,44,44,0,0,1,10,3,10.53,10.53,0,0,1,4.39,3.8,9.73,9.73,0,0,1,1.37,5.09,10.86,10.86,0,0,1-1.83,6.09,11.51,11.51,0,0,1-5.11,4.24,20.68,20.68,0,0,1-8.27,1.44q-8.78,0-12.14-3.38A13.28,13.28,0,0,1,314.46,181.86Z"/><path class="cls-5" d="M361.85,158.87v9.47h5.25v7h-5.25v8.82a4.86,4.86,0,0,0,.3,2.11,1.74,1.74,0,0,0,1.64.79,10.3,10.3,0,0,0,2.95-.61l.71,6.59a30.82,30.82,0,0,1-6.61.77,11.46,11.46,0,0,1-5.25-.91,5.56,5.56,0,0,1-2.5-2.77,16.28,16.28,0,0,1-.81-6v-8.76h-3.51v-7h3.51v-4.57Z"/><path class="cls-5" d="M371.74,168.34h8.93v4.08a9.7,9.7,0,0,1,2.66-3.65,5.61,5.61,0,0,1,3.38-1,10,10,0,0,1,4.62,1.31l-2.95,6.8a7.56,7.56,0,0,0-2.67-.71,3.31,3.31,0,0,0-2.91,1.55q-1.49,2.18-1.48,8.16v8.34h-9.58Z"/><path class="cls-5" d="M420.58,183.15H401.46a6.13,6.13,0,0,0,1.24,3.42,4.51,4.51,0,0,0,3.61,1.62,5.44,5.44,0,0,0,2.67-.7,6.36,6.36,0,0,0,1.66-1.57l9.4.87a13.41,13.41,0,0,1-5.2,5.37c-2,1.09-4.95,1.63-8.74,1.63a18,18,0,0,1-7.79-1.39,11.42,11.42,0,0,1-4.69-4.43,13.29,13.29,0,0,1-1.87-7.14,12.52,12.52,0,0,1,3.74-9.44q3.74-3.62,10.32-3.61a18.47,18.47,0,0,1,8.44,1.61,11,11,0,0,1,4.71,4.69,17.11,17.11,0,0,1,1.62,8Zm-9.7-4.57a6.43,6.43,0,0,0-1.49-4,4.68,4.68,0,0,0-6.81.61,6.54,6.54,0,0,0-1.1,3.35Z"/><path class="cls-5" d="M433.66,176.4l-9.12-1a10.13,10.13,0,0,1,1.49-3.76,8.23,8.23,0,0,1,2.8-2.38,11.76,11.76,0,0,1,3.61-1.12,28.68,28.68,0,0,1,5-.4,39.56,39.56,0,0,1,6.89.48,8.87,8.87,0,0,1,4.33,2,7,7,0,0,1,1.93,3,10.77,10.77,0,0,1,.7,3.69v11a13.24,13.24,0,0,0,.22,2.76,12.6,12.6,0,0,0,1,2.54h-9a9.27,9.27,0,0,1-.7-1.46,11.06,11.06,0,0,1-.33-1.59,12.08,12.08,0,0,1-3.73,2.58,15.4,15.4,0,0,1-5.88,1c-3,0-5.22-.68-6.76-2.06a6.55,6.55,0,0,1-2.31-5.09,6.66,6.66,0,0,1,1.67-4.66c1.1-1.22,3.15-2.12,6.14-2.72q5.36-1.08,7-1.51a32.72,32.72,0,0,0,3.37-1.14,3.38,3.38,0,0,0-.72-2.46,3.66,3.66,0,0,0-2.56-.7,6.65,6.65,0,0,0-3.52.75A4.11,4.11,0,0,0,433.66,176.4Zm8.27,5c-1.31.47-2.68.88-4.1,1.24a9.58,9.58,0,0,0-3.68,1.52,2.42,2.42,0,0,0-.8,1.76,2.4,2.4,0,0,0,.79,1.84,3.3,3.3,0,0,0,2.31.72,5.87,5.87,0,0,0,3-.78,4.67,4.67,0,0,0,1.95-1.88,6.4,6.4,0,0,0,.57-2.9Z"/><path class="cls-5" d="M457.05,168.34H466V172a12.4,12.4,0,0,1,3.88-3.23,10.67,10.67,0,0,1,4.73-1,9.1,9.1,0,0,1,4.72,1.05,7.92,7.92,0,0,1,2.84,3.14,14.36,14.36,0,0,1,4.09-3.31,10.58,10.58,0,0,1,4.57-.88,8.17,8.17,0,0,1,6.25,2.38q2.23,2.37,2.24,7.44v15.63h-9.56V179.05a4,4,0,0,0-.65-2.51,2.89,2.89,0,0,0-2.39-1.29,3.39,3.39,0,0,0-2.71,1.22,6.1,6.1,0,0,0-1,3.92v12.84h-9.57V179.52a9,9,0,0,0-.18-2.23,3.09,3.09,0,0,0-1.06-1.51,2.83,2.83,0,0,0-1.76-.57,3.4,3.4,0,0,0-2.71,1.24,6.26,6.26,0,0,0-1.06,4.08v12.7h-9.56Z"/><path d="M210.7,67.56h-12L197,73.23H186.13l12.92-34.36h11.58l12.91,34.36H212.42Zm-2.2-7.43-3.79-12.35L201,60.13Z"/><path d="M226.28,38.87H236V56.61l7.13-8.27H254.9L246,57.06l9.45,16.17H244.67l-5-10L236,66.76v6.47h-9.75Z"/><path d="M258.3,38.87h9.75V56.61l7.12-8.27h11.75L278,57.06l9.44,16.17H276.68l-5-10-3.59,3.51v6.47H258.3Z"/><path d="M299,56.4l-9.12-1a10.3,10.3,0,0,1,1.49-3.76,8.23,8.23,0,0,1,2.8-2.38,11.76,11.76,0,0,1,3.61-1.12,28.68,28.68,0,0,1,5-.4,39.48,39.48,0,0,1,6.89.48,9,9,0,0,1,4.34,2,7,7,0,0,1,1.92,3,10.77,10.77,0,0,1,.7,3.69v11a14,14,0,0,0,.22,2.76,12.6,12.6,0,0,0,1,2.54h-9a9.27,9.27,0,0,1-.7-1.46,11.06,11.06,0,0,1-.33-1.59,12.17,12.17,0,0,1-3.72,2.58,15.49,15.49,0,0,1-5.89,1c-3,0-5.22-.68-6.76-2.06a6.55,6.55,0,0,1-2.31-5.09A6.66,6.66,0,0,1,290.81,62c1.11-1.22,3.15-2.12,6.14-2.72q5.37-1.08,7-1.51a31.93,31.93,0,0,0,3.37-1.14,3.38,3.38,0,0,0-.72-2.46,3.66,3.66,0,0,0-2.56-.7,6.59,6.59,0,0,0-3.51.75A4.06,4.06,0,0,0,299,56.4Zm8.27,5c-1.31.47-2.68.88-4.1,1.24a9.58,9.58,0,0,0-3.68,1.52,2.46,2.46,0,0,0,0,3.6,3.3,3.3,0,0,0,2.31.72,5.87,5.87,0,0,0,3-.78,4.61,4.61,0,0,0,1.95-1.88,6.4,6.4,0,0,0,.57-2.9Z"/><path d="M339,38.87h10.61v12h11.61v-12H371.9V73.23H361.24V59.33H349.63v13.9H339Z"/><path d="M376.54,38.87h32.27v8.49H398V73.23H387.37V47.36H376.54Z"/><path d="M411.21,38.87h32.27v8.49H432.65V73.23H422V47.36H411.21Z"/><path d="M448.24,38.87h17.64c3.85,0,6.73.92,8.64,2.74s2.87,4.43,2.87,7.81-1,6.18-3.13,8.13-5.27,2.93-9.55,2.93H458.9V73.23H448.24ZM458.9,53.52h2.6c2.05,0,3.49-.36,4.31-1.07a3.43,3.43,0,0,0,1.25-2.73A3.8,3.8,0,0,0,466,47c-.72-.75-2.07-1.12-4.06-1.12h-3Z"/></svg>